<svg xmlns="http://www.w3.org/2000/svg" viewBox="0 0 60 75" x="0px" y="0px"><title>Robots - Outline - 044 - Baymax Battle Head</title><g data-name="Bot 33"><path d="M58.46,9.29a2,2,0,0,0-2.25,1.05l-4.59,9.17a19.83,19.83,0,0,0-3.45-5.58,1,1,0,0,0-.45-.28c-2.41-4-8-6.8-14.62-7.49A1,1,0,0,0,32.57,6H27.43a1,1,0,0,0-.53.16c-6.61.69-12.21,3.54-14.62,7.49a1,1,0,0,0-.45.28,19.83,19.83,0,0,0-3.45,5.58L3.79,10.34A2,2,0,0,0,1.54,9.29,2,2,0,0,0,0,11.24v21.3a2,2,0,0,0,.7,1.52l6.53,5.6,6.66,11.1A8.78,8.78,0,0,0,21.38,55H38.62a8.78,8.78,0,0,0,7.49-4.24l6.66-11.1,6.53-5.6a2,2,0,0,0,.7-1.52V11.24A2,2,0,0,0,58.46,9.29ZM58,11.22V22.67l-5-1.43h0ZM51,29.69l-.11.15h0l-.21.3,0,0h0C44.39,38.91,39.8,43.42,38.71,43.29,36,40.57,30.33,40,30.09,40h-.18c-.24,0-5.89.56-8.55,3.25-1.16.19-5.75-4.35-12-13.07h0l0,0-.21-.3h0L9,29.69V26.5a16.56,16.56,0,0,1,2-8c.41,6,7.77,10.84,17.1,11.41Q29.06,30,30,30t1.86-.06c9.33-.57,16.69-5.43,17.1-11.41a16.56,16.56,0,0,1,2,8ZM30,8c.71,0,1.41,0,2.11.09l2.8,4.09L32.67,20H27.33l-2.23-7.82,2.8-4.09C28.59,8,29.29,8,30,8Zm-4.76.42L23.44,11a2,2,0,0,0-.27,1.68l2.23,7.82A2,2,0,0,0,27.33,22h5.35a2,2,0,0,0,1.92-1.45l2.23-7.82A2,2,0,0,0,36.56,11l-1.8-2.62c5.64,1,10.25,3.71,11.73,7.18l0,.08a6.08,6.08,0,0,1,.45,2C46.82,23.39,39.27,28,30,28S13.18,23.39,13,17.69a6.07,6.07,0,0,1,.45-2l0-.09C15,12.13,19.6,9.42,25.24,8.42ZM7,21.24H7L2,22.67V11.24ZM2,24.75l5-1.43v13.5L2,32.54ZM26,53V49.5c0-1.3,2.16-2.66,4-3.43,1.85.77,4,2.12,4,3.43V53Zm18.4-3.27A6.77,6.77,0,0,1,38.62,53H36V49.5c0-2.8-3.66-4.62-5.24-5.27a2,2,0,0,0-1.53,0C27.66,44.88,24,46.7,24,49.5V53H21.38a6.77,6.77,0,0,1-5.78-3.27L9,38.72V33.1l.27.36.36.49.5.67.37.49.52.67.36.46.57.71.32.4.83,1,.12.15.81,1,.31.35.57.64.35.38.51.55.36.37.49.49.35.34.46.43.34.31.44.37.33.26.43.31.3.21.41.25.27.15a4.58,4.58,0,0,0,.42.18l.21.08a2.61,2.61,0,0,0,.58.12,1.89,1.89,0,0,0,1.55-.54c2.05-2.05,6.61-2.63,7.3-2.7,1.51.15,5.49.9,7.29,2.7a1.89,1.89,0,0,0,.31.25l.13.07.22.11.17,0,.22.05.18,0h.33a2.61,2.61,0,0,0,.58-.12l.21-.08a4.58,4.58,0,0,0,.42-.18l.27-.15.42-.25.3-.21.43-.31.33-.26.44-.37.34-.3.46-.43.35-.34.49-.49.36-.37.52-.55.34-.37.58-.65.3-.34.81-1,.12-.14.83-1,.32-.4.57-.71.35-.46.53-.68.36-.48.51-.67.36-.49L51,33.1v5.62ZM53,36.83V23.33l5,1.43v7.79Z"/><path d="M40,30a4,4,0,0,0-3.86,3H23.86a4,4,0,1,0,0,2H36.14A4,4,0,1,0,40,30ZM20,36a2,2,0,1,1,2-2A2,2,0,0,1,20,36Zm20,0a2,2,0,1,1,2-2A2,2,0,0,1,40,36Z"/></g><text x="0" y="75" fill="#000000" font-size="5px" font-weight="bold" font-family="'Helvetica Neue', Helvetica, Arial-Unicode, Arial, Sans-serif">Created by Creaticca Creative Agency</text><text x="0" y="80" fill="#000000" font-size="5px" font-weight="bold" font-family="'Helvetica Neue', Helvetica, Arial-Unicode, Arial, Sans-serif">from the Noun Project</text></svg>